<?xml version="1.0" encoding="utf-8"?>
<!-- Generator: Adobe Illustrator 23.0.3, SVG Export Plug-In . SVG Version: 6.00 Build 0)  -->
<svg version="1.1" xmlns="http://www.w3.org/2000/svg" xmlns:xlink="http://www.w3.org/1999/xlink" x="0px" y="0px"
	 viewBox="0 0 400 400" style="enable-background:new 0 0 400 400;" xml:space="preserve">
<g id="logo">
	<g>
		<path d="M67.3,95.5V96h-3v10.6h9.3V96h-3v-0.5h10.6V96h-3V118h3v0.5H70.7V118h3v-11h-9.3v11h3v0.5H56.7V118h3V96h-3v-0.5H67.3z"/>
		<path d="M87.9,111.8c0,0.8,0,1.6,0.1,2.3c0.1,0.8,0.2,1.5,0.5,2.1c0.3,0.6,0.7,1.2,1.2,1.6c0.5,0.4,1.3,0.6,2.3,0.6
			c0.9,0,1.6-0.2,2.2-0.5c0.6-0.3,1.1-0.7,1.5-1.1c0.4-0.4,0.7-0.8,0.8-1.2c0.2-0.4,0.3-0.7,0.3-0.9l0.5,0.2
			c-0.1,0.4-0.3,0.8-0.5,1.3c-0.3,0.5-0.6,0.9-1.1,1.3c-0.5,0.4-1,0.7-1.7,1c-0.7,0.3-1.5,0.4-2.4,0.4c-1.1,0-2.2-0.2-3.1-0.5
			c-1-0.3-1.8-0.8-2.5-1.5c-0.7-0.6-1.3-1.4-1.7-2.3c-0.4-0.9-0.6-2-0.6-3.1c0-0.9,0.2-1.8,0.6-2.7c0.4-0.9,0.9-1.7,1.6-2.3
			c0.7-0.7,1.5-1.2,2.4-1.6c0.9-0.4,1.9-0.6,2.9-0.6c0.8,0,1.5,0.1,2.3,0.4c0.8,0.2,1.4,0.6,2,1.1c0.6,0.5,1.1,1.1,1.5,1.9
			c0.4,0.8,0.6,1.7,0.6,2.8h-9.5V111.8z M93.1,107.8c0-0.2,0-0.5,0-0.9c0-0.3-0.1-0.7-0.2-1c-0.1-0.3-0.3-0.6-0.6-0.9
			c-0.3-0.2-0.7-0.4-1.2-0.4c-0.7,0-1.3,0.2-1.7,0.5c-0.4,0.3-0.7,0.8-0.9,1.3c-0.2,0.5-0.3,1.1-0.4,1.7c-0.1,0.6-0.1,1.2-0.1,1.8
			h5.2V107.8z"/>
		<path d="M105.8,95.2V118h2.2v0.5h-8.3V118h2.2V95.7h-2.2v-0.5H105.8z"/>
		<path d="M116,95.2V118h2.2v0.5h-8.3V118h2.2V95.7h-2.2v-0.5H116z"/>
		<path d="M133.9,118.8c-0.6,0.1-1.1,0.1-1.6,0.1c-1.1,0-1.9-0.2-2.4-0.6c-0.5-0.4-0.9-0.9-1-1.6h-0.1c-0.3,0.9-0.8,1.4-1.4,1.7
			c-0.6,0.3-1.5,0.5-2.6,0.5c-0.5,0-1-0.1-1.6-0.2c-0.5-0.1-1-0.3-1.5-0.5c-0.5-0.2-0.8-0.6-1.1-1c-0.3-0.4-0.4-0.9-0.4-1.5
			c0-0.6,0.1-1.1,0.4-1.6c0.2-0.4,0.6-0.8,1-1.1c0.4-0.3,0.8-0.5,1.4-0.7c0.5-0.2,1-0.4,1.6-0.5c0.9-0.3,1.6-0.5,2.1-0.7
			c0.5-0.2,1-0.4,1.3-0.6c0.3-0.2,0.5-0.4,0.6-0.7c0.1-0.3,0.2-0.6,0.2-1v-2c0-0.6-0.1-1.1-0.4-1.6c-0.3-0.5-0.8-0.7-1.6-0.7
			c-0.5,0-0.9,0.1-1.3,0.3c-0.4,0.2-0.5,0.6-0.5,1.2c0,0.1,0,0.2,0,0.3c0,0.2,0,0.3,0.1,0.5c0,0.2,0,0.4,0.1,0.5c0,0.2,0,0.3,0,0.4
			c0,0.3-0.1,0.6-0.2,0.8c-0.2,0.2-0.3,0.3-0.5,0.4c-0.2,0.1-0.4,0.1-0.6,0.1c-0.2,0-0.4,0-0.6,0c-0.2,0-0.4,0-0.7,0
			c-0.2,0-0.4-0.1-0.6-0.2c-0.2-0.1-0.3-0.3-0.4-0.5c-0.1-0.2-0.2-0.5-0.2-0.9c0-0.6,0.2-1.1,0.5-1.5c0.3-0.4,0.7-0.8,1.2-1.1
			c0.5-0.3,1.1-0.5,1.8-0.7c0.7-0.2,1.3-0.2,2-0.2c0.8,0,1.6,0.1,2.3,0.2c0.7,0.1,1.3,0.4,1.9,0.7c0.5,0.3,0.9,0.8,1.3,1.4
			c0.3,0.6,0.5,1.3,0.5,2.2v8c0,0.4,0.1,0.8,0.2,1.1c0.1,0.3,0.4,0.5,0.9,0.5c0.3,0,0.5-0.1,0.7-0.2c0.2-0.1,0.4-0.3,0.5-0.5
			l0.3,0.3C134.9,118.4,134.5,118.7,133.9,118.8z M128.6,110.5c0,0.1-0.1,0.3-0.2,0.4c-0.1,0.1-0.3,0.3-0.6,0.4
			c-0.4,0.2-0.8,0.4-1.2,0.6s-0.8,0.4-1.1,0.7c-0.3,0.3-0.6,0.6-0.8,1c-0.2,0.4-0.3,0.9-0.3,1.6c0,0.3,0,0.6,0,0.9
			c0,0.3,0.1,0.7,0.3,1c0.1,0.3,0.4,0.6,0.6,0.8c0.3,0.2,0.7,0.3,1.2,0.3c0.3,0,0.6-0.1,0.8-0.2c0.3-0.1,0.5-0.3,0.7-0.6
			c0.2-0.3,0.4-0.6,0.5-1.1c0.1-0.4,0.2-1,0.2-1.6L128.6,110.5L128.6,110.5z"/>
		<path d="M156.7,113.9c-0.1,0.8-0.3,1.6-0.7,2.3c-0.4,0.7-1,1.4-1.9,1.9c-0.9,0.5-2.1,0.8-3.7,0.8c-0.6,0-1.1,0-1.7-0.1
			c-0.6-0.1-1.2-0.3-1.6-0.5c-0.5-0.3-0.9-0.6-1.2-1.1c-0.3-0.5-0.5-1-0.5-1.7c0-0.1,0-0.3,0-0.5c0-0.2,0.1-0.5,0.3-0.8
			c0.2-0.3,0.4-0.5,0.8-0.7c0.3-0.2,0.8-0.3,1.5-0.3c0.2,0,0.4,0,0.6,0c0.2,0,0.4,0.1,0.6,0.2s0.4,0.3,0.5,0.5
			c0.1,0.2,0.2,0.5,0.2,0.8c0,0.2,0,0.3-0.1,0.6c0,0.2-0.1,0.5-0.2,0.7c-0.1,0.3-0.1,0.5-0.2,0.7c0,0.2-0.1,0.4-0.1,0.5
			c0,0.3,0.1,0.6,0.2,0.7c0.1,0.2,0.3,0.3,0.4,0.4c0.1,0.1,0.3,0.1,0.5,0.1c0.2,0,0.3,0,0.4,0c0.4,0,0.6-0.1,0.8-0.2
			c0.2-0.1,0.3-0.3,0.4-0.5c0.1-0.2,0.1-0.4,0.1-0.7c0-0.2,0-0.5,0-0.7V96h-3v-0.5h10.6V96h-3v15.9
			C156.8,112.4,156.8,113.1,156.7,113.9z"/>
		<path d="M172.8,104.8c1,0.4,1.8,0.9,2.5,1.6c0.7,0.7,1.3,1.4,1.7,2.3s0.6,1.8,0.6,2.8c0,1-0.2,2-0.6,2.9s-1,1.7-1.7,2.3
			c-0.7,0.7-1.5,1.2-2.5,1.6c-1,0.4-2,0.6-3.1,0.6s-2.2-0.2-3.1-0.6c-1-0.4-1.8-0.9-2.5-1.6s-1.3-1.4-1.7-2.3s-0.6-1.8-0.6-2.9
			c0-1,0.2-1.9,0.6-2.8s1-1.7,1.7-2.3s1.5-1.2,2.5-1.6c1-0.4,2-0.6,3.1-0.6S171.8,104.4,172.8,104.8z M171.6,117.9
			c0.5-0.4,0.8-0.9,1-1.6c0.2-0.6,0.4-1.4,0.4-2.2c0.1-0.8,0.1-1.7,0.1-2.5c0-0.9,0-1.7-0.1-2.5s-0.2-1.6-0.4-2.2
			c-0.2-0.6-0.6-1.2-1-1.6s-1.1-0.6-2-0.6s-1.5,0.2-2,0.6c-0.5,0.4-0.8,0.9-1,1.6c-0.2,0.6-0.4,1.4-0.4,2.2
			c-0.1,0.8-0.1,1.7-0.1,2.5c0,0.9,0,1.7,0.1,2.5c0.1,0.8,0.2,1.6,0.4,2.2c0.2,0.6,0.6,1.2,1,1.6c0.5,0.4,1.1,0.6,2,0.6
			S171.1,118.3,171.6,117.9z"/>
		<path d="M182.1,118v-12.9H180v-0.5h6v3.2h0.1c0.1-0.2,0.2-0.5,0.5-0.9c0.2-0.4,0.5-0.8,0.9-1.2c0.4-0.4,0.9-0.7,1.6-1
			c0.6-0.3,1.5-0.4,2.4-0.4c1.4,0,2.5,0.4,3.3,1.2c0.8,0.8,1.2,1.9,1.2,3.4v9.1h2.2v0.5H190V118h2v-10.2c0-0.9-0.2-1.6-0.5-2
			c-0.4-0.4-0.9-0.6-1.5-0.6c-0.5,0-1,0.1-1.5,0.4c-0.5,0.2-0.9,0.6-1.2,1.1c-0.4,0.5-0.6,1.1-0.9,1.8c-0.2,0.7-0.3,1.6-0.3,2.6v6.9
			h2v0.5H180V118H182.1z"/>
		<path d="M210.5,116.4c0.7,0.2,1.4,0.4,2,0.8c0.6,0.4,1,0.9,1.4,1.6c0.3,0.7,0.5,1.5,0.5,2.5c0,0.8-0.2,1.7-0.5,2.5
			c-0.3,0.8-0.9,1.5-1.5,2.1s-1.5,1.1-2.4,1.5c-0.9,0.4-2,0.6-3.2,0.6c-1.4,0-2.4-0.1-3.2-0.5c-0.8-0.3-1.4-0.7-1.9-1.1
			c-0.4-0.4-0.7-0.8-0.8-1.3c-0.1-0.4-0.2-0.8-0.2-1.1c0-0.6,0.1-1.1,0.4-1.5c0.3-0.5,0.6-0.8,1-1.2c0.4-0.3,0.9-0.6,1.4-0.9
			c0.5-0.2,1-0.4,1.5-0.5v-0.1c-0.4,0-0.9-0.1-1.5-0.2s-1.1-0.3-1.5-0.5c-0.5-0.3-0.9-0.6-1.2-1.1c-0.3-0.5-0.5-1-0.5-1.7
			c0-0.1,0-0.3,0.1-0.6c0.1-0.3,0.2-0.6,0.4-1c0.2-0.4,0.5-0.8,0.9-1.2c0.4-0.4,0.9-0.8,1.6-1.2c-0.2-0.2-0.4-0.3-0.6-0.5
			c-0.2-0.2-0.5-0.4-0.7-0.7c-0.2-0.3-0.4-0.6-0.5-0.9c-0.1-0.4-0.2-0.8-0.2-1.2c0-0.7,0.1-1.3,0.4-1.9c0.3-0.6,0.7-1.1,1.2-1.5
			c0.5-0.4,1.2-0.8,2-1c0.8-0.3,1.7-0.4,2.6-0.4c1,0,1.8,0.2,2.5,0.5c0.7,0.3,1.3,0.6,1.8,1c0.5-0.5,1-0.9,1.5-1.1
			c0.4-0.2,1-0.4,1.7-0.4c0.6,0,1.1,0.2,1.4,0.5c0.3,0.3,0.5,0.7,0.5,1.2c0,0.4-0.1,0.8-0.4,1c-0.3,0.2-0.6,0.4-1,0.4
			c-0.3,0-0.5,0-0.7-0.1c-0.2-0.1-0.3-0.2-0.4-0.3c-0.1-0.1-0.2-0.2-0.2-0.4c0-0.1-0.1-0.3-0.1-0.3c0-0.3-0.1-0.5-0.1-0.7
			c0-0.2-0.2-0.2-0.4-0.2c-0.1,0-0.3,0-0.5,0.1c-0.2,0.1-0.5,0.3-0.9,0.6c0.3,0.3,0.5,0.7,0.8,1.1c0.3,0.5,0.5,1.1,0.5,2
			c0,0.5-0.1,1.1-0.3,1.6c-0.2,0.5-0.5,1-1,1.4c-0.5,0.4-1.1,0.8-1.8,1c-0.7,0.3-1.6,0.4-2.7,0.4c-0.9,0-1.6-0.1-2.3-0.3
			c-0.7-0.2-1.2-0.3-1.6-0.5c-0.6,0.4-1,0.8-1.1,1c-0.1,0.3-0.2,0.6-0.2,0.8c0,0.5,0.2,0.9,0.6,1.2c0.4,0.3,1,0.4,1.7,0.4h3.5
			C209,116.2,209.7,116.3,210.5,116.4z M203.6,124.8c0.1,0.5,0.3,0.9,0.6,1.3c0.3,0.4,0.7,0.7,1.2,1c0.5,0.3,1.2,0.4,2,0.4
			c0.6,0,1.2-0.1,1.8-0.3c0.6-0.2,1-0.5,1.5-0.9c0.4-0.4,0.8-0.9,1-1.4c0.3-0.5,0.4-1.1,0.4-1.8c0-0.6-0.1-1.2-0.3-1.6
			s-0.5-0.7-0.8-1c-0.3-0.2-0.7-0.4-1.1-0.5c-0.4-0.1-0.7-0.1-1.1-0.1h-3.4c-0.6,0.5-1.1,1-1.5,1.5s-0.5,1.2-0.5,2.1
			C203.4,123.9,203.5,124.3,203.6,124.8z M208.2,112.9c0.3-0.1,0.6-0.3,0.8-0.6c0.2-0.3,0.4-0.7,0.5-1.3c0.1-0.5,0.2-1.3,0.2-2.1
			c0-0.6,0-1.2-0.1-1.7c0-0.5-0.2-1-0.3-1.4c-0.2-0.4-0.4-0.7-0.7-0.9c-0.3-0.2-0.8-0.3-1.4-0.3c-0.5,0-1,0.1-1.3,0.3
			c-0.3,0.2-0.6,0.5-0.8,0.9c-0.2,0.4-0.3,0.8-0.4,1.3c-0.1,0.5-0.1,1-0.1,1.5c0,1,0.1,1.8,0.2,2.4c0.1,0.6,0.3,1.1,0.5,1.4
			c0.2,0.3,0.5,0.5,0.8,0.6c0.3,0.1,0.7,0.1,1,0.1C207.6,113.1,207.9,113,208.2,112.9z"/>
		<path d="M221.7,111.8c0,0.8,0,1.6,0.1,2.3c0.1,0.8,0.2,1.5,0.5,2.1c0.3,0.6,0.7,1.2,1.2,1.6c0.5,0.4,1.3,0.6,2.3,0.6
			c0.9,0,1.6-0.2,2.2-0.5c0.6-0.3,1.1-0.7,1.5-1.1c0.4-0.4,0.7-0.8,0.8-1.2c0.2-0.4,0.3-0.7,0.3-0.9l0.5,0.2
			c-0.1,0.4-0.3,0.8-0.5,1.3c-0.3,0.5-0.6,0.9-1.1,1.3c-0.5,0.4-1,0.7-1.7,1c-0.7,0.3-1.5,0.4-2.4,0.4c-1.1,0-2.2-0.2-3.1-0.5
			c-1-0.3-1.8-0.8-2.5-1.5c-0.7-0.6-1.3-1.4-1.7-2.3c-0.4-0.9-0.6-2-0.6-3.1c0-0.9,0.2-1.8,0.6-2.7c0.4-0.9,0.9-1.7,1.6-2.3
			c0.7-0.7,1.5-1.2,2.4-1.6c0.9-0.4,1.9-0.6,2.9-0.6c0.8,0,1.5,0.1,2.3,0.4c0.8,0.2,1.4,0.6,2,1.1c0.6,0.5,1.1,1.1,1.5,1.9
			c0.4,0.8,0.6,1.7,0.6,2.8h-9.5V111.8z M226.9,107.8c0-0.2,0-0.5,0-0.9c0-0.3-0.1-0.7-0.2-1c-0.1-0.3-0.3-0.6-0.6-0.9
			c-0.3-0.2-0.7-0.4-1.2-0.4c-0.7,0-1.3,0.2-1.7,0.5c-0.4,0.3-0.7,0.8-0.9,1.3c-0.2,0.5-0.3,1.1-0.4,1.7c-0.1,0.6-0.1,1.2-0.1,1.8
			h5.2V107.8z"/>
		<path d="M239.6,104.6v2.7h0.1c0.4-0.8,0.9-1.5,1.6-2.1c0.7-0.6,1.5-0.9,2.6-0.9c0.9,0,1.6,0.2,2.2,0.7c0.6,0.5,0.8,1.2,0.8,2
			c0,0.6-0.2,1.1-0.5,1.5c-0.3,0.4-0.8,0.5-1.5,0.5c-0.5,0-0.9-0.1-1.4-0.3c-0.4-0.2-0.6-0.6-0.6-1.1c0-0.1,0-0.2,0-0.3
			c0-0.2,0-0.3,0.1-0.5c0-0.2,0.1-0.3,0.1-0.5c0-0.1,0-0.2,0-0.3c0-0.2-0.1-0.3-0.1-0.4c0-0.1-0.1-0.2-0.2-0.3
			c-0.1-0.1-0.2-0.1-0.4-0.1c-0.2,0-0.5,0.1-0.8,0.3c-0.3,0.2-0.6,0.5-0.9,0.9c-0.3,0.4-0.5,0.9-0.7,1.4c-0.2,0.5-0.3,1.2-0.3,1.9
			v8.3h2.5v0.5h-8.6V118h2.1v-12.9h-2.1v-0.5H239.6z"/>
		<path d="M253.9,104.6V118h2.2v0.5h-8.3V118h2.2v-12.9h-2.2v-0.5H253.9z M250.3,96.1c0.5-0.5,1-0.7,1.6-0.7s1.2,0.2,1.6,0.7
			s0.7,1,0.7,1.6s-0.2,1.2-0.7,1.6s-1,0.7-1.6,0.7s-1.2-0.2-1.6-0.7s-0.7-1-0.7-1.6S249.9,96.5,250.3,96.1z"/>
		<path d="M263.8,104.6v10.2c0,0.8,0.2,1.5,0.5,2.1c0.3,0.6,0.9,0.9,1.7,0.9c0.5,0,0.9-0.1,1.4-0.4c0.4-0.2,0.8-0.6,1-1
			c0.3-0.4,0.5-0.9,0.7-1.4c0.2-0.5,0.2-1.1,0.2-1.7v-8.3h-2.1v-0.5h6.1V118h2.1v0.5h-6v-2.6h-0.1c-0.2,0.5-0.4,0.9-0.8,1.2
			c-0.3,0.4-0.7,0.7-1.2,0.9c-0.4,0.2-0.9,0.4-1.4,0.5c-0.5,0.1-1,0.2-1.5,0.2c-1.5,0-2.7-0.3-3.5-1c-0.8-0.7-1.2-1.8-1.2-3.3v-9.3
			h-2.2v-0.5H263.8z"/>
		<path d="M278.4,113.8c0.3,0.6,0.5,1.2,0.8,1.7c0.3,0.6,0.6,1.1,1,1.5c0.4,0.4,0.8,0.8,1.3,1c0.5,0.3,1.1,0.4,1.9,0.4
			c0.2,0,0.5,0,0.8,0c0.3,0,0.6-0.1,1-0.3c0.3-0.2,0.6-0.4,0.8-0.7s0.3-0.8,0.3-1.4c0-0.2,0-0.4-0.1-0.6s-0.2-0.4-0.3-0.6
			c-0.2-0.2-0.4-0.4-0.8-0.6c-0.3-0.2-0.8-0.4-1.4-0.6l-2.6-1c-0.3-0.1-0.6-0.3-1-0.4c-0.3-0.2-0.7-0.4-1-0.7
			c-0.3-0.3-0.5-0.7-0.7-1.1c-0.2-0.4-0.3-0.9-0.3-1.5c0-0.6,0.1-1.2,0.4-1.8c0.3-0.6,0.6-1,1.1-1.5c0.5-0.4,1-0.8,1.7-1
			c0.7-0.2,1.4-0.4,2.1-0.4c0.4,0,0.8,0,1.1,0.1c0.4,0.1,0.7,0.2,1,0.3c0.3,0.1,0.5,0.2,0.8,0.3c0.2,0.1,0.4,0.1,0.5,0.1
			c0.2,0,0.4,0,0.5-0.1c0.1-0.1,0.1-0.2,0.2-0.3h0.5v3.9h-0.4c-0.2-0.5-0.4-1-0.7-1.5c-0.2-0.5-0.5-0.9-0.8-1.2
			c-0.3-0.4-0.7-0.6-1.1-0.8c-0.5-0.2-1-0.3-1.7-0.3c-0.7,0-1.4,0.2-2,0.6c-0.6,0.4-0.9,0.9-0.9,1.7c0,0.1,0,0.3,0.1,0.5
			c0,0.2,0.1,0.4,0.3,0.6c0.1,0.2,0.4,0.4,0.7,0.6c0.3,0.2,0.8,0.4,1.3,0.6l2.7,0.9c1.2,0.4,2,0.9,2.6,1.6c0.6,0.7,0.9,1.5,0.9,2.5
			c0,0.7-0.2,1.3-0.5,1.9c-0.3,0.6-0.7,1.1-1.2,1.5c-0.5,0.4-1.1,0.7-1.8,0.9c-0.7,0.2-1.4,0.3-2.1,0.3c-0.4,0-0.8,0-1.3-0.1
			c-0.5-0.1-0.9-0.2-1.3-0.3c-0.4-0.1-0.8-0.2-1.1-0.3c-0.3-0.1-0.6-0.1-0.8-0.1c-0.2,0-0.3,0-0.4,0.1c-0.1,0.1-0.1,0.2-0.2,0.4
			h-0.5v-4.7H278.4z"/>
	</g>
</g>
<g id="line">
	<g>
		<rect x="57" y="122.7" width="232" height="2.3"/>
	</g>
</g>
</svg>
