<?xml version="1.0" encoding="utf-8"?>
<!-- Generator: Adobe Illustrator 23.0.3, SVG Export Plug-In . SVG Version: 6.00 Build 0)  -->
<svg version="1.1" id="vaas" xmlns="http://www.w3.org/2000/svg" xmlns:xlink="http://www.w3.org/1999/xlink" x="0px" y="0px"
	 viewBox="0 0 841.9 595.3" style="enable-background:new 0 0 841.9 595.3;" xml:space="preserve">
<style type="text/css">
	.st0{fill:#111110;}
</style>
<g>
	<path class="st0" d="M377.9,411.4c-26.3,0-46.9-5.1-47.2-5.1l0.5-1.9c0.5,0.1,46.6,11.5,89-0.1l0.5,1.9
		C406.3,410.1,391.3,411.4,377.9,411.4z"/>
</g>
<g>
	<path class="st0" d="M335,402.1l-9.8-31.8c-0.1-0.4-10.8-38.8-17.5-83c-9-59.6-6.7-100.8,6.7-122.6c31.3-50.7,24.5-67.9,24.5-68
		l1.8-0.8c0.3,0.7,7.4,18-24.6,69.9c-31.5,51.1,10.6,202.5,11,204l9.8,31.8L335,402.1z"/>
</g>
<g>
	<path class="st0" d="M344,402c-1.9-7.7-5-15.8-7.9-23.7c-12.3-43-20.2-84.3-24.1-126.3c-1.9-26.9-2.3-55.6,8.1-82.5l0.1-0.2
		c10.2-14.3,17.4-30,23.9-44.8c2.9-6.8,3.9-13.7,4.5-21.9l2,0.1c-0.6,8.4-1.6,15.4-4.7,22.5c-6.5,14.9-13.7,30.7-24,45.1
		c-10.2,26.5-9.8,54.8-7.9,81.5c3.9,41.8,11.7,83,24,125.8c2.9,7.8,6,16,7.9,23.8L344,402z"/>
</g>
<g>
	<path class="st0" d="M409.2,405l-1.9-0.5c0.3-1,26.6-104.1,30.3-132.6c3.5-26.6,3.6-61.6,0.1-89.1c-2.3-18.3-11.3-37.7-17.9-51.9
		c-2.4-5.2-4.5-9.7-5.8-13.1c-4.7-12.7-3.2-22.6-3.1-23.1l2,0.3c0,0.1-1.5,9.9,3,22c1.2,3.3,3.3,7.8,5.7,12.9
		c6.6,14.3,15.8,33.9,18.1,52.5c3.5,27.6,3.4,62.8-0.1,89.6C435.8,300.8,409.5,404,409.2,405z"/>
</g>
<g>
	<path class="st0" d="M368.6,337.6c-13,0-25.8-1.8-38-5.3l0.6-1.9c20.9,6.1,43.8,6.9,66,2.3c9.1-1.9,18-4.7,26.6-8.3l0.8,1.8
		c-8.7,3.7-17.8,6.6-27,8.4C387.9,336.6,378.2,337.6,368.6,337.6z"/>
</g>
<g>
	<path class="st0" d="M365.3,131.1c-5.3,0-10.6-0.8-15.8-2.6l0.7-1.9c20.8,7.3,42.6-2.6,61.4-12.4l0.9,1.8
		C397.9,123.6,381.7,131.1,365.3,131.1z"/>
</g>
<g>
	<path class="st0" d="M377.9,102.7c0,0-0.1,0-0.1,0c-8,0-17.1-1.1-24.4-3c-5.9-1.5-13-4.1-13.1-8c0-1.1,0.5-2.3,1.6-3.4
		c5.3-5.3,22.4-9.6,36.7-9.3c13.8,0.3,29.4,4.9,34.1,9.9c1,1.1,1.5,2.2,1.5,3.3l0,0C413.9,99.2,390.8,102.7,377.9,102.7z M376.9,81
		c-14.4,0-29.4,4.5-33.6,8.7c-0.5,0.5-1.1,1.2-1.1,1.9c0.1,4.3,18.7,9,35.5,9.1c0.1,0,0.1,0,0.2,0c16.5,0,34.1-4.4,34.3-8.5
		c0-0.7-0.5-1.4-0.9-1.9c-3.8-4.1-18.2-9-32.7-9.3C378,81,377.5,81,376.9,81z"/>
</g>
</svg>
